<svg xmlns="http://www.w3.org/2000/svg" xmlns:xlink="http://www.w3.org/1999/xlink" width="2048" height="2048" viewBox="0 0 2048 2048">
    <rect x="0" y="0" width="2048" height="2048" fill="white"/>
    <g transform="translate(-442.621 -989.555)">
        <path d="M659.839-164.96V-659.839H825V-164.96ZM0,0V-825H659.839v165.161H164.96V-164.96H659.839V0Z" transform="translate(723.621 1998.555)"/>
        <path d="M0,0V-825H659.839v165.161H164.96v164.96H659.839v-164.96H825V-164.96H659.839v-164.96H164.96v164.96H659.839V0Z" transform="translate(1384.621 2824.555)"/>
    </g>
    <path d="M95.977-71.982V-95.977H23.994v23.994ZM0,0V-120H120V0H95.977V-47.988H23.994V0ZM143.994,0V-23.994h47.988V-95.977H143.994V-120h120v24.023H215.977v71.982h48.018V0ZM287.988,0V-120h23.994v96.006h96.006V0ZM479.971,0V-47.988H431.982V-120h23.994v48.018h71.982V-120h24.023v72.012H503.965V0Z" transform="translate(962 988)"/>
    <path d="M95.977-23.994V-95.977H23.994v71.982ZM0,0V-120H120V0Z" transform="translate(1625 1151)"/>
    <path d="M0,0V-47.988H23.994v23.994H95.977V-120H120V0Z" transform="translate(1625 1814)"/>
</svg>