<svg version="1" xmlns="http://www.w3.org/2000/svg" width="1365.333" height="1365.333" viewBox="0 0 1024.000000 1024.000000"><g fill="0077c1"><path d="M208.6 180.8c-.4.7-3.5 11.7-7.1 25.7-3.6 13.8-10.8 40.6-12.1 45.1-.8 2.8-1.6 6-1.9 7-.2 1.1-1.5 5.8-2.9 10.7-1.3 4.8-2.5 9-2.5 9.2-.1.3-.1.6-.2.7-.1.3-.5 2.2-1.3 5.3-.2 1.1-3.4 13-7.1 26.5-6.7 24.9-9.5 35.1-12 45-2.5 10.1-14.5 54.5-15.4 57.5-.6 1.6-1.2 4.1-1.5 5.5-.3 1.4-1.3 5.2-2.2 8.5-.9 3.3-1.8 6.7-1.9 7.5-.2.8-1.8 6.7-3.5 13-1.8 6.3-3.3 12.2-3.5 13-.2.8-1.3 4.6-2.4 8.5-1.1 3.8-3.3 12.2-5 18.5-1.6 6.3-3.7 14.2-4.6 17.5-1 3.3-1.9 6.7-2 7.5-.2.8-1.5 5.8-3 11-1.4 5.2-2.8 10.5-3.1 11.7-.2 1.2-.9 3.4-1.4 4.8-.5 1.4-.7 2.5-.5 2.5.2 0 0 1.2-.6 2.6-.5 1.5-5 17.9-9.9 36.4s-9.4 34.9-9.9 36.4c-.6 1.4-.9 2.6-.7 2.6.2 0-.2 2.1-1 4.7-1.2 4-7.7 28-9 33.3-1.5 6.5-9.6 36.2-10.4 38.7-.6 1.8-1.3 4.1-1.5 5.3-.2 1.1-2.7 10.7-5.6 21.3-2.8 10.6-6.6 24.8-8.4 31.7-1.8 6.9-5.9 21.9-9 33.5-3.1 11.5-7.4 27.6-9.6 35.6-2.1 8-4.1 15.4-4.5 16.3-.6 1.5 1.5 1.6 23.5 1.6h24l1-3.8c.6-2 4.9-18.1 9.6-35.7 4.7-17.6 8.8-32.8 9-33.7.7-3 7.6-29 9.7-36.2 1.1-3.8 2.1-7.6 2.3-8.5.2-.9 1.5-5.9 2.9-11.1 1.4-5.2 3.7-13.8 5.1-19 6.9-25.9 9.7-36.3 12-45 2.6-9.3 3.1-11.2 3.9-14.8.3-.9 1.6-6 3.1-11.2 2.8-10.2 3.3-12 3.9-14.8.2-.9 1-3.7 1.7-6.2s1.3-5 1.5-5.6c.1-.6 1-3.8 1.9-7 .9-3.3 1.8-6.6 2-7.4.2-.9 1.9-7.4 3.9-14.6 2-7.1 3.8-13.9 4-14.9.4-1.8 12.5-47 30.5-114 3.8-14.3 8.4-31.4 10.1-38 1.7-6.6 4.9-18.5 7.1-26.5 2.1-8 5-18.8 6.4-24 1.4-5.2 2.9-10.9 3.4-12.5.5-1.7 4.2-15.4 8.1-30.5 4-15.1 7.5-28.2 7.8-29 .3-.8.6-2 .7-2.5.3-.9 1.4-5.1 10-37.5 1.8-6.9 4.3-16.1 5.5-20.5 1.2-4.4 2.3-8.7 2.5-9.5.2-.8 1.5-5.8 3-11s2.8-10.2 3-11c.2-.8.6-2.7 1-4.3l.7-2.7h-23.5c-13 0-23.8.3-24.1.8zM528.1 252.8c-5.2.3-5.6.5-12 7.2-5.7 5.8-19.8 20.3-70.1 71.9-5.2 5.4-23.3 23.9-40.1 41.2-16.9 17.3-34.8 35.7-39.9 40.9-5 5.2-22.1 22.8-38 39-15.8 16.2-33.9 34.8-40.2 41.4l-11.5 11.8 8.6 8.8c9 9.3 22.9 23.5 73.1 75 16.8 17.2 38.7 39.7 48.6 49.9 10 10.2 22.6 23.2 28 28.7 13.2 13.5 56.4 57.9 75.9 77.8l15.5 16h33c18.2.1 33-.1 33-.4 0-.5-3.8-4.4-61.9-63.9-16.8-17.3-34.4-35.4-39.1-40.2-4.7-4.8-22.1-22.6-38.6-39.6-16.6-16.9-34.6-35.4-40-41-18.5-19-62.9-64.6-66.8-68.4-2.2-2.2-3.7-4.1-3.4-4.4.2-.3 12.1-12.5 26.4-27.1 14.2-14.7 30.6-31.5 36.4-37.4 5.8-6 22.2-22.8 36.5-37.5s31.6-32.4 38.5-39.5c6.9-7 24.7-25.2 39.5-40.5 14.9-15.3 36.1-37 47.2-48.4 11.1-11.3 20-20.7 19.8-20.9-.4-.5-51.5-.8-58.4-.4zM683.3 253.3c-.3.5-.2 1.1.2 1.5 2.2 2.2 60 61.4 68.6 70.2 5.6 5.8 23.7 24.4 40.3 41.4 16.5 16.9 34.1 34.9 38.9 40 4.9 5 21.8 22.4 37.7 38.6 15.8 16.2 32.7 33.5 37.4 38.5 4.8 4.9 11.5 11.8 14.9 15.2l6.1 6.2-11.6 11.8c-6.4 6.5-16 16.4-21.5 21.9-9 9.4-55.8 57.4-78.3 80.5-5.2 5.3-21.6 22.2-36.5 37.4-14.8 15.2-32.2 33-38.5 39.5-46.6 47.7-63.2 64.9-63.3 65.6-.1.4 14.5.8 32.5.8l32.8.1 23.2-23.9c12.8-13.1 28.3-28.9 34.3-35.1 6.1-6.3 22.9-23.6 37.5-38.5 14.6-15 31.7-32.5 38-39 6.3-6.5 24.4-25 40.1-41.2 15.7-16.1 32.8-33.6 37.8-38.8 5.1-5.2 16-16.3 24.1-24.6l14.9-15.2-10.2-10.5c-5.6-5.8-22.6-23.2-37.7-38.7-15.1-15.5-32.7-33.5-39-40-31.6-32.4-66.8-68.5-75-77-5.1-5.2-22.6-23.2-39-40s-33.4-34.3-37.8-38.8l-8-8.4-31.2-.1c-17.1-.1-31.4.2-31.7.6z"/></g><script/><script/></svg>