<svg xmlns="http://www.w3.org/2000/svg" viewBox="0 0 2048 2048"><style>.st1{stroke:#000;stroke-width:16}</style><path fill="#fff" d="M0 0h2048v2048H0V0z"/><path class="st1" d="M1455.5 1334.8l-107.7-107.7c-32.8-32.8-86-32.8-118.9 0l-.1.1c-32.8 32.8-32.8 86 0 118.8l107.8 107.7c32.8 32.8 86 32.8 118.8 0l.1-.1c32.8-32.8 32.8-86 0-118.8zM713.3 592.6c-32.8-32.8-86-32.8-118.9 0l-.1.1c-32.8 32.8-32.8 86 0 118.8l107.8 107.7c32.8 32.8 86 32.8 118.8 0l.1-.1c32.8-32.8 32.8-86 0-118.8L713.3 592.6zM1145 1024.3l-56.1-56.1c-1.3-1.3-2.6-2.5-3.9-3.6l-3.6-3.9-56.1-56.1c-32.8-32.8-86-32.8-118.8 0l-.1.1c-32.8 32.8-32.8 86 0 118.8l56.1 56.1c1.3 1.3 2.6 2.5 3.9 3.6l3.6 3.9 56.1 56.1c32.8 32.8 86 32.8 118.8 0l.1-.1c32.8-32.8 32.8-86 0-118.8z"/><path d="M721.2 713s56.5-69.7-6.5-128.7-131 4-131 4-347.4 350-374.1 377.5-28.1 87.8 0 116.7 341.1 345.3 376.1 377.5 88.7 41.9 131.5 0S1338 841.7 1338 841.7s58.9-58.9 118.2.2 123.5 123.7 123.5 123.7 58.7 58.8 0 117.6-209.3 208.4-247.1 247.5-36.6 94.6 0 130.8 93.9 35.6 129.2 0 350-349.9 377-378.3 30.7-86.2.1-117.6-355.3-355.8-382.6-382.9-88.1-29.7-118.5 0-620.4 618-620.4 618-64.9 65.3-131.6-.9c-66.7-66.3-117.2-117.1-117.2-117.1s-58-58.4 0-116.6S721.2 713 721.2 713z"/></svg>